<svg width="256" height="256" viewBox="0 0 256 256" fill="none" xmlns="http://www.w3.org/2000/svg">
<rect width="256" height="256" fill="#FFC632"/>
<path d="M75 197V59H124.611C142.381 59 155.882 62.2541 165.115 68.7624C174.411 75.2706 179.059 84.717 179.059 97.1016C179.059 104.242 177.415 110.339 174.127 115.394C170.838 120.449 166.001 124.177 159.613 126.578C166.823 128.474 172.356 132.012 176.214 137.194C180.071 142.375 182 148.694 182 156.15C182 169.672 177.7 179.845 169.099 186.669C160.562 193.43 147.883 196.874 131.061 197H75ZM108.295 138.331V171.409H130.113C136.12 171.409 140.737 170.051 143.962 167.334C147.187 164.554 148.8 160.668 148.8 155.676C148.8 144.176 143.077 138.394 131.63 138.331H108.295ZM108.295 116.532H125.654C132.927 116.468 138.112 115.141 141.211 112.551C144.31 109.96 145.859 106.137 145.859 101.082C145.859 95.2692 144.183 91.0989 140.832 88.5714C137.48 85.9808 132.073 84.6854 124.611 84.6854H108.295V116.532Z" fill="black"/>
</svg>
